<svg xmlns="http://www.w3.org/2000/svg" xmlns:xlink="http://www.w3.org/1999/xlink" width="130.139" height="43.501" xmlns:v="https://vecta.io/nano"><path d="M119.775 0H10.369 9.178l-1 .014A14.371 14.371 0 0 0 6 .208 7.249 7.249 0 0 0 3.933.89a7 7 0 0 0-1.76 1.282A6.806 6.806 0 0 0 .891 3.935 7.179 7.179 0 0 0 .211 6a14.13 14.13 0 0 0-.195 2.182l-.016 1v25.139l.016 1A14.13 14.13 0 0 0 .211 37.5a7.164 7.164 0 0 0 .68 2.071 6.751 6.751 0 0 0 1.281 1.756 6.824 6.824 0 0 0 1.76 1.282A7.287 7.287 0 0 0 6 43.3a14.633 14.633 0 0 0 2.179.192l1 .012h1.191 109.405 1.179l1-.012a14.441 14.441 0 0 0 2.175-.192 7.4 7.4 0 0 0 2.075-.686 6.827 6.827 0 0 0 1.759-1.282 6.955 6.955 0 0 0 1.285-1.756 7.182 7.182 0 0 0 .673-2.071 14.687 14.687 0 0 0 .2-2.177v-1l.008-1.19V10.371l-.008-1.187v-1a14.687 14.687 0 0 0-.2-2.177 7.2 7.2 0 0 0-.673-2.07A7.032 7.032 0 0 0 126.207.89a7.36 7.36 0 0 0-2.075-.682 14.186 14.186 0 0 0-2.175-.192l-1-.014h-1.179z" fill="#a6a6a6"/><path d="M9.184 42.55c-.331 0-.655 0-.983-.012a13.8 13.8 0 0 1-2.033-.177 6.4 6.4 0 0 1-1.8-.6 5.88 5.88 0 0 1-1.522-1.101c-.45-.442-.825-.956-1.11-1.519s-.487-1.173-.591-1.8a13.5 13.5 0 0 1-.181-2.039l-.016-.993V9.184l.016-.973c.009-.682.069-1.362.181-2.034a6.26 6.26 0 0 1 .591-1.809c.282-.563.654-1.076 1.1-1.52s.964-.824 1.529-1.113 1.174-.486 1.8-.592A13.69 13.69 0 0 1 8.203.965l.981-.013h111.764l.993.014a13.47 13.47 0 0 1 2.021.177 6.46 6.46 0 0 1 1.817.6c1.129.582 2.047 1.502 2.626 2.632.283.565.48 1.169.582 1.793.113.678.176 1.364.189 2.052v.968l.009 1.187v22.757l-.009 1.169v1.011c-.013.676-.075 1.349-.186 2.016a6.24 6.24 0 0 1-.587 1.816 5.96 5.96 0 0 1-1.1 1.507c-.444.45-.958.825-1.522 1.112-.571.29-1.183.492-1.814.6a13.64 13.64 0 0 1-2.033.177l-.976.012h-1.179z"/><g fill="#fff"><path d="M26.936 22.079a5.38 5.38 0 0 1 2.563-4.516 5.51 5.51 0 0 0-4.341-2.347c-1.826-.192-3.6 1.093-4.527 1.093-.949 0-2.381-1.074-3.924-1.042a5.78 5.78 0 0 0-4.865 2.967c-2.1 3.642-.534 8.993 1.48 11.937 1.008 1.441 2.186 3.051 3.728 2.994 1.508-.063 2.072-.962 3.893-.962 1.8 0 2.333.962 3.905.926 1.619-.026 2.639-1.448 3.611-2.9a11.92 11.92 0 0 0 1.651-3.363 5.2 5.2 0 0 1-3.174-4.787zm-2.971-8.799a5.3 5.3 0 0 0 1.212-3.8 5.39 5.39 0 0 0-3.488 1.8 5.04 5.04 0 0 0-1.245 3.665 4.46 4.46 0 0 0 3.521-1.665zm22.04 16.236h-5.148l-1.236 3.65h-2.18l4.876-13.5h2.265l4.876 13.5H47.24zm-4.615-1.684h4.08l-2.012-5.924h-.055zm18.597.411c0 3.06-1.638 5.026-4.109 5.026a3.34 3.34 0 0 1-3.1-1.723h-.047v4.877h-2.019v-13.1h1.956v1.638h.037c.645-1.113 1.849-1.782 3.135-1.741 2.5-.003 4.147 1.972 4.147 5.023zm-2.077 0c0-1.993-1.03-3.3-2.6-3.3-1.544 0-2.583 1.338-2.583 3.3 0 1.984 1.039 3.313 2.583 3.313 1.571 0 2.6-1.301 2.6-3.313zm12.914 0c0 3.06-1.638 5.026-4.109 5.026a3.34 3.34 0 0 1-3.1-1.723h-.047v4.877h-2.015v-13.1h1.956v1.638h.037c.645-1.113 1.849-1.782 3.135-1.741 2.496-.003 4.143 1.972 4.143 5.023zm-2.077 0c0-1.993-1.03-3.3-2.6-3.3-1.544 0-2.583 1.338-2.583 3.3 0 1.984 1.039 3.313 2.583 3.313 1.572 0 2.6-1.3 2.6-3.313zm9.24 1.16c.15 1.339 1.451 2.219 3.229 2.219 1.7 0 2.929-.879 2.929-2.087 0-1.048-.739-1.676-2.489-2.106l-1.75-.422c-2.48-.6-3.631-1.759-3.631-3.641 0-2.33 2.031-3.931 4.914-3.931 2.854 0 4.81 1.6 4.876 3.931h-2.04c-.122-1.348-1.236-2.161-2.864-2.161s-2.742.823-2.742 2.021c0 .955.712 1.517 2.452 1.947l1.488.365c2.771.655 3.922 1.768 3.922 3.744 0 2.527-2.013 4.109-5.214 4.109-2.995 0-5.017-1.545-5.148-3.988zm12.654-8.413v2.33h1.875v1.6h-1.875v5.428c0 .843.375 1.236 1.2 1.236a6.44 6.44 0 0 0 .665-.047v1.591a5.55 5.55 0 0 1-1.123.093c-1.993 0-2.771-.749-2.771-2.658V24.92h-1.433v-1.6h1.432v-2.33zm2.957 7.254c0-3.1 1.825-5.045 4.67-5.045s4.671 1.947 4.671 5.045-1.806 5.044-4.671 5.044-4.67-1.938-4.67-5.044zm7.281 0c0-2.125-.974-3.379-2.612-3.379s-2.61 1.264-2.61 3.379c0 2.134.973 3.378 2.61 3.378s2.612-1.245 2.612-3.378zm3.726-4.924h1.928v1.676h.047a2.35 2.35 0 0 1 2.368-1.779c.233-.001.465.024.692.075v1.89a2.82 2.82 0 0 0-.908-.122 2.04 2.04 0 0 0-1.574.648c-.405.435-.599 1.026-.532 1.617v5.844h-2.021zm14.354 6.954c-.272 1.787-2.013 3.014-4.24 3.014-2.864 0-4.642-1.919-4.642-5s1.787-5.091 4.557-5.091c2.724 0 4.437 1.871 4.437 4.857v.692h-6.954v.122c-.065.733.188 1.459.695 1.993a2.56 2.56 0 0 0 1.954.796 2.23 2.23 0 0 0 2.274-1.385zm-6.832-2.939h4.923a2.37 2.37 0 0 0-2.415-2.5c-.665-.004-1.304.258-1.774.728s-.735 1.107-.733 1.772zM41.137 9.496a2.87 2.87 0 0 1 3.053 3.224c0 2.073-1.12 3.265-3.053 3.265h-2.344V9.496zm-1.336 5.568h1.221a2.04 2.04 0 0 0 2.14-2.334c.082-.605-.111-1.214-.525-1.662a2.05 2.05 0 0 0-1.615-.655h-1.221z"/><use xlink:href="#B"/><path d="M56.087 15.985h-1l-1.011-3.607h-.08l-1.008 3.607h-.993l-1.35-4.9h.98l.877 3.737h.074l1.007-3.737h.927l1.007 3.737h.076l.873-3.737h.966z"/><use xlink:href="#C"/><path d="M64.266 9.176h.966v6.809h-.966zm2.31 4.358a2.32 2.32 0 1 1 4.619 0 2.32 2.32 0 1 1-4.619 0zm3.625 0c0-1.062-.477-1.682-1.314-1.682s-1.313.621-1.313 1.682.473 1.686 1.313 1.686 1.314-.62 1.314-1.686zm2.011 1.066c0-.882.656-1.39 1.821-1.462l1.326-.076v-.423c0-.517-.342-.809-1-.809-.54 0-.913.2-1.021.544h-.936c.1-.841.89-1.381 2-1.381 1.228 0 1.92.611 1.92 1.646v3.346h-.93v-.688h-.08a1.65 1.65 0 0 1-1.471.769 1.48 1.48 0 0 1-1.629-1.466zm3.148-.418v-.409l-1.2.076c-.674.045-.98.275-.98.706s.382.7.908.7c.312.033.624-.062.864-.264s.388-.493.409-.806zm2.233-.643c0-1.547.8-2.528 2.033-2.528.624-.028 1.208.306 1.5.859h.072V9.176h.966v6.809h-.919v-.774h-.076a1.7 1.7 0 0 1-1.538.854c-1.251.001-2.038-.98-2.038-2.526zm1 0c0 1.039.49 1.664 1.308 1.664s1.318-.634 1.318-1.659-.509-1.664-1.318-1.664-1.308.629-1.308 1.659z"/><use xlink:href="#B" x="40.836"/><use xlink:href="#C" x="33.512"/><path d="M101.701 9.869v1.242h1.061v.814h-1.061v2.518c0 .513.211.738.692.738a3.25 3.25 0 0 0 .369-.022v.805a3.17 3.17 0 0 1-.526.049c-1.075 0-1.5-.378-1.5-1.322v-2.767h-.777v-.814h.777V9.869zm2.376-.693h.958v2.7h.076c.263-.578.86-.928 1.493-.877.48-.026.947.163 1.273.516s.478.833.414 1.31v3.162h-.967v-2.926c0-.782-.364-1.178-1.047-1.178-.336-.028-.668.095-.905.334s-.358.572-.328.908v2.86h-.967zm9.854 5.486a1.99 1.99 0 0 1-2.122 1.417c-.653.017-1.281-.253-1.716-.74a2.23 2.23 0 0 1-.546-1.788 2.26 2.26 0 0 1 2.258-2.558c1.363 0 2.185.931 2.185 2.469v.337h-3.458v.054c-.03.362.094.72.341.987a1.29 1.29 0 0 0 .959.413c.473.057.933-.178 1.165-.594zm-3.4-1.578h2.473a1.18 1.18 0 0 0-1.205-1.269 1.25 1.25 0 0 0-1.268 1.269z"/></g><defs ><path id="B" d="M45.329 13.534a2.32 2.32 0 0 1 3.533-2.192 2.32 2.32 0 0 1 1.086 2.192 2.32 2.32 0 0 1-3.533 2.192 2.32 2.32 0 0 1-1.086-2.192zm3.625 0c0-1.062-.477-1.682-1.314-1.682s-1.313.621-1.313 1.682.473 1.686 1.313 1.686 1.314-.62 1.314-1.686z"/><path id="C" d="M58.568 11.085h.93v.778h.072c.251-.572.838-.923 1.461-.872.483-.038.958.147 1.289.501s.482.84.411 1.32v3.173h-.966v-2.928c0-.787-.342-1.178-1.057-1.178-.327-.015-.645.113-.87.352s-.334.563-.299.889v2.865h-.966z"/></defs></svg>